<?xml version="1.0" encoding="utf-8"?>
<!-- Generator: Adobe Illustrator 25.2.1, SVG Export Plug-In . SVG Version: 6.00 Build 0)  -->
<svg version="1.1" id="Layer_1" xmlns="http://www.w3.org/2000/svg" xmlns:xlink="http://www.w3.org/1999/xlink" x="0px" y="0px"
	 viewBox="0 0 500 500" style="enable-background:new 0 0 500 500;" xml:space="preserve">
<style type="text/css">
	.st0{fill:#FFFFFF;}
</style>
<g>
	<path class="st0" d="M251.2,58.37c2.61,0.77,5.29,1.38,7.82,2.34c16.2,6.16,25.11,23.95,20.5,40.81
		c-4.41,16.15-21,27.19-37.1,24.69c-18.1-2.82-30.6-17.75-29.64-35.42c0.86-15.86,11.7-28.45,27.33-31.75
		c0.72-0.15,1.4-0.45,2.1-0.68C245.21,58.37,248.2,58.37,251.2,58.37z"/>
	<path class="st0" d="M235.48,133.97c0,13.18,0,25.77,0,38.36c0,17.96-0.01,35.92,0.01,53.89c0.01,7.5,4.71,12.64,11.39,12.53
		c6.53-0.1,11.05-5.16,11.05-12.5c0.02-29.06,0.01-58.13,0.01-87.19c0-1.49,0-2.99,0-4.96c14.09-0.05,28.21-1.89,40.97,6.31
		c10.86,6.98,17.63,16.7,20.02,29.38c0.55,2.92,0.73,5.95,0.73,8.93c0.05,30.06,0.04,60.12,0.03,90.19c0,1.1-0.12,2.2-0.2,3.41
		c-27.28,0-54.31,0-81.36,0c-0.61-3.13-1-6.21-1.83-9.16c-3.98-14.18-16.72-24.09-31.45-24.34c-10.22-0.18-20.44-0.03-31.13-0.03
		c0-1.59,0-2.93,0-4.27c0-18.34-0.04-36.67,0.01-55.01c0.08-26.98,18.73-45.53,45.71-45.54
		C224.65,133.97,229.86,133.97,235.48,133.97z"/>
	<g>
		<path class="st0" d="M169.98,305.95c7.62,0,14.91,0,22.49,0c0-7.45,0-14.71,0-21.94c-7.69,0-15.19,0-22.49,0
			C169.98,291.52,169.98,298.69,169.98,305.95z"/>
		<path class="st0" d="M239.5,317.36c-0.07-6.89-4.88-11.13-11.9-11.21c-3.98-0.05-7.95-0.01-12.34-0.01
			c0-11.16,0.02-21.87-0.01-32.57c-0.02-7.73-4.59-12.31-12.34-12.33c-14.47-0.03-28.94-0.03-43.41,0
			c-7.75,0.02-12.34,4.6-12.34,12.33c0,9.48,0.09,18.96,0.14,28.44c0.01,1.31,0,2.61,0,4.13c-4.54,0-8.52-0.04-12.5,0.01
			c-7.17,0.08-11.88,4.44-11.93,11.58c-0.14,18.46-0.14,36.93,0,55.39c0.05,7.14,4.77,11.59,11.92,11.6
			c30.94,0.04,61.88,0.04,92.82,0c7.01-0.01,11.82-4.33,11.89-11.22C239.68,354.79,239.68,336.07,239.5,317.36z M192.47,305.95
			c-7.57,0-14.87,0-22.49,0c0-7.26,0-14.44,0-21.94c7.29,0,14.8,0,22.49,0C192.47,291.24,192.47,298.5,192.47,305.95z"/>
	</g>
	<path class="st0" d="M198.82,407.18c10.15,0,19.96,0.13,29.77-0.03c11.48-0.19,20.64-5.1,27.35-14.41
		c4.3-5.96,6.09-12.74,6.09-20.04c0-18.2-0.02-36.41,0.01-54.61c0.01-8.5-2.68-16.06-8.37-23c14.4,0,28.18,0,42.42,0
		c0,1.46,0.05,2.89-0.01,4.32c-1.64,38.36-3.3,76.72-4.95,115.08c-0.22,5.11-0.25,10.23-0.63,15.32c-0.61,8.02-4.82,11.8-12.91,11.8
		c-21.57,0.02-43.14,0.02-64.71,0c-8.14-0.01-12.4-3.72-12.98-11.72C199.36,422.47,199.18,415.03,198.82,407.18z"/>
</g>
</svg>
