<?xml version="1.0" encoding="utf-8"?>
<!-- Generator: Adobe Illustrator 25.2.1, SVG Export Plug-In . SVG Version: 6.00 Build 0)  -->
<svg version="1.1" id="Layer_1" xmlns="http://www.w3.org/2000/svg" xmlns:xlink="http://www.w3.org/1999/xlink" x="0px" y="0px"
	 viewBox="0 0 500 500" style="enable-background:new 0 0 500 500;" xml:space="preserve">
<style type="text/css">
	.st0{fill:#FFFFFF;}
</style>
<g>
	<path class="st0" d="M51.43,286.99c-0.29-0.96-0.53-1.39-0.54-1.82c-0.02-24.06-0.02-48.12-0.02-72.66
		c8.93-3.35,17.96-6.72,26.97-10.13c12.19-4.61,24.35-9.31,36.58-13.81c1.8-0.66,4.08-1.01,5.87-0.52
		c10.43,2.82,20.76,6.01,31.18,8.9c2.58,0.72,3.48,1.88,3.47,4.61c-0.09,32.35-0.09,64.7,0,97.05c0.01,2.73-0.92,3.93-3.5,4.62
		c-10.59,2.82-21.13,5.85-31.72,8.71c-1.16,0.31-2.62,0.36-3.73-0.05c-19.5-7.22-38.97-14.53-58.31-22.49
		c19.84,2.72,39.68,5.43,59.93,8.21c0-30.33,0-60.31,0-91.1c-5.81,1.37-11.46,2.7-17.11,4.03c-7.58,1.79-15.13,3.74-22.76,5.29
		c-3.81,0.77-5.1,2.47-5.05,6.43c0.22,17.05-0.02,34.1,0.18,51.15c0.04,3.93-1.05,6.09-4.96,7.32
		C62.37,282.47,57.01,284.84,51.43,286.99z"/>
	<path class="st0" d="M317.3,287.08c-2.74,0-4.64,0-7.15,0c-0.09-1.7-0.26-3.37-0.26-5.04c-0.02-12.12-0.1-24.23,0.04-36.35
		c0.04-3.23-0.86-4.66-4.32-4.44c-4.13,0.25-8.31,0.31-12.43-0.01c-4.27-0.33-5.84,0.93-5.71,5.51c0.33,11.63,0.11,23.27,0.11,34.91
		c0,1.71,0,3.41,0,5.35c-2.77,0-4.95,0-7.85,0c0-15.08,0-30.1,0-45.41c-3.18-0.19-5.68-0.33-8.57-0.51c0-1.87,0-3.67,0-5.51
		c0.22-0.14,0.47-0.44,0.74-0.47c7.59-0.79,7.59-0.79,7.71-8.86c0.18-12.1,6.85-19.24,17.44-18.66c5.23,0.29,5.68,0.93,4.51,6.58
		c-0.27,0.12-0.56,0.35-0.83,0.34c-10.93-0.39-16.45,7.1-12.89,17.7c0.29,0.86,1.76,1.86,2.71,1.89c6.03,0.17,12.06,0.09,18.58,0.09
		c0.24-4.18,0.33-7.95,0.68-11.7c0.82-8.79,6.89-14.6,15.61-15.09c6.01-0.34,6.83,0.6,5.87,6.7c-0.27,0.14-0.55,0.39-0.83,0.38
		c-10.85-0.32-16.42,7.23-12.92,17.78c0.3,0.9,2.05,1.72,3.2,1.84c2.67,0.27,5.38,0.09,8.65,0.09c0.12,2.21,0.23,4.17,0.38,6.92
		c-2.71,0-5.05,0.2-7.35-0.05c-3.9-0.42-5.28,0.93-5.2,5.01c0.25,11.79,0.09,23.59,0.09,35.39
		C317.3,283.19,317.3,284.91,317.3,287.08z"/>
	<path class="st0" d="M193.18,250.22c1.43-6.08,2.16-12.5,4.47-18.29c6.41-16.06,20.92-21.61,35.36-20.41
		c17.13,1.42,27.48,11.49,30.66,28.36c2.09,11.13,0.98,21.86-4.33,31.98c-7.05,13.43-19.09,17.76-33.18,16.96
		c-13.9-0.79-24.15-7.77-29.06-21.07C195.1,262.34,194.51,256.39,193.18,250.22z M201.56,249.92c1.36,5.5,2.11,11.26,4.22,16.46
		c4.12,10.11,12.22,15.19,23.11,15.4c11.1,0.21,19.22-4.71,23.93-14.88c3.74-8.08,3.86-16.53,2.67-25.18
		c-1.45-10.5-8.72-19.5-18.37-22.27c-10.38-2.98-21.22,0.42-27.75,8.94C204.56,234.64,202.36,241.84,201.56,249.92z"/>
	<path class="st0" d="M449.12,262.95c-11.07,0-21.38-0.01-31.68,0c-6.8,0.01-7.98,1.85-5.39,8.32c3.47,8.66,12.88,12.89,23.1,10.1
		c3.18-0.87,6.17-2.46,9.24-3.72c1.79,4.62,1.11,6.74-3.41,8.67c-8.45,3.62-17.26,3.88-25.43,0c-3.83-1.82-7.62-5.63-9.4-9.47
		c-5.22-11.3-5.04-22.86,1.8-33.72c4.85-7.7,14.43-11.71,23.7-9.88c8.86,1.75,14.44,7.22,16.23,16.04
		C448.75,253.56,448.7,258.02,449.12,262.95z M411.56,255.77c9.72,0,19.4,0,29.07,0c0.33-9.48-4.61-15.6-12.74-16.19
		C419.89,239,412.36,246.31,411.56,255.77z"/>
	<path class="st0" d="M395.36,242.89c-10.67-4.57-20.37-5.07-27.59,5.24c-5.4,7.71-4.91,20.08,0.72,27.44
		c5.37,7.03,12.57,7.94,26.48,3.35c1.53,5.84,1.07,6.72-4.47,8.56c-20.09,6.69-37.14-8.44-34.28-30.41
		c2.18-16.79,16.34-26.98,32.95-23.71C396.14,234.73,396.14,234.73,395.36,242.89z"/>
	<path class="st0" d="M345.78,287c-2.29,0-4.31,0-6.71,0c0-17.17,0-34.29,0-51.97c2.05-0.12,4.18-0.24,6.71-0.38
		C345.78,252.17,345.78,269.31,345.78,287z"/>
	<path class="st0" d="M342.6,219.55c-3.35,0.09-4.99-1.46-4.99-4.88c0-3.47,2.19-5.05,5.09-5.06c2.96-0.01,5.17,1.72,5.09,5.1
		C347.72,218,345.89,219.61,342.6,219.55z"/>
</g>
</svg>
